PathFileType	4	(X/Y/Z)	RBDS018\RBDS018runT45.trc
DataRate	CameraRate	NumFrames	NumMarkers	Units	OrigDataRate	OrigDataStartFrame	OrigNumFrames
150.000000	150.000000	4	33	mm	150.000000	1125	4500
Frame#	Time	L.ASIS			L.Heel.Bottom			L.Heel.Lateral			L.Heel.Top			L.Iliac.Crest			L.MT1			L.MT5			L.PSIS			L.Shank.Bottom.Lateral			L.Shank.Bottom.Medial			L.Shank.Top.Lateral			L.Shank.Top.Medial			L.Thigh.Bottom.Lateral			L.Thigh.Bottom.Medial			L.Thigh.Top.Lateral			L.Thigh.Top.Medial			R.ASIS			R.ASY			R.Heel.Bottom			R.Heel.Lateral			R.Heel.Top			R.Iliac.Crest			R.MT1			R.MT5			R.PSIS			R.Shank.Bottom.Lateral			R.Shank.Bottom.Medial			R.Shank.Top.Lateral			R.Shank.Top.Medial			R.Thigh.Bottom.Lateral			R.Thigh.Bottom.Medial			R.Thigh.Top.Lateral			R.Thigh.Top.Medial			
		X1	Y1	Z1	X2	Y2	Z2	X3	Y3	Z3	X4	Y4	Z4	X5	Y5	Z5	X6	Y6	Z6	X7	Y7	Z7	X8	Y8	Z8	X9	Y9	Z9	X10	Y10	Z10	X11	Y11	Z11	X12	Y12	Z12	X13	Y13	Z13	X14	Y14	Z14	X15	Y15	Z15	X16	Y16	Z16	X17	Y17	Z17	X18	Y18	Z18	X19	Y19	Z19	X20	Y20	Z20	X21	Y21	Z21	X22	Y22	Z22	X23	Y23	Z23	X24	Y24	Z24	X25	Y25	Z25	X26	Y26	Z26	X27	Y27	Z27	X28	Y28	Z28	X29	Y29	Z29	X30	Y30	Z30	X31	Y31	Z31	X32	Y32	Z32	X33	Y33	Z33	

1126	7.500000000000001	2255.858264966899	972.2267763307735	908.7846146809685	1820.242861642434	720.9403778660968	1003.580232210818	1808.797261945094	692.3597816294645	953.5620202616029	1855.604448308591	685.1092551787045	997.2831402187885	2206.303643956214	1052.884248940121	851.8161200952308	1706.170061354523	526.9153422948179	1038.740345213267	1715.783790292843	555.1280659119308	929.2757903642298	2077.418230579471	1004.210160705269	935.5510609457231	1924.874063523082	610.0987658991056	928.2839077573844	1938.740281309673	635.8291059181021	970.551481772112	2002.237776203877	590.4905897795813	911.7262047616642	2020.045570108648	614.1675608864024	956.0785976223827	2209.390945101291	557.7763127397824	856.1343582186636	2152.73024791499	559.0922066651406	902.0914667349489	2196.271578764014	664.4103043957699	835.8540317763146	2137.967285974156	664.1907906092193	874.1480520348914	2229.591310010826	1004.234769670616	1133.2887345353	8863903071.351875	-8130294.031145089	-2969778.844942738	2160.405142284198	32.88228585011834	991.3207517867156	2178.665614290144	43.47230246980531	1031.796541827101	2175.336988970691	81.26033773939447	997.7777456817649	2156.994603275937	1067.264963576423	1156.063142995086	2390.229890154259	43.84896251485235	973.5176156605245	2346.763711337803	36.8686880367129	1081.553449083296	2060.792915850234	1017.002691591053	1044.120029978207	2253.25233461777	175.563433303967	1095.633823570103	2211.089167629702	191.3571456616763	1063.400458341325	2257.376553238652	251.2993355602237	1124.637245713218	2216.796290376932	266.1621528500688	1091.674612161135	2263.406121204216	600.1706277313768	1182.36215539361	2212.027602091072	582.6421810233353	1134.788163309048	2213.314116233975	697.6545233064323	1199.335371673538	2164.286199906666	679.9831771550693	1155.982030648539	
1127	7.506666666666667	2253.693424987463	965.0214432289702	910.8040417326189	1837.977709785021	717.1244874395704	999.2856171904126	1827.857684919046	687.8382079988302	949.7023701325024	1874.059680751382	681.9057394156388	993.9152588019821	2203.143597080453	1044.960782886013	851.4788531100171	1726.859446775983	521.5820855138004	1034.871763033108	1737.817428380941	548.8181053807417	925.2233850295329	2074.883644162099	999.9776137109585	935.160673104235	1945.720486553483	606.3964419323997	924.9018883927519	1959.628636724536	632.5586912293861	966.8348432649724	2023.07201830546	586.8875451359951	908.1179754223743	2040.961076492397	611.0296568074034	952.2252641964897	2225.482538514445	555.7415032851866	852.9991293308375	2168.333859056646	553.3144723422791	897.9614292427328	2207.048648069255	661.6088724671055	833.9393880139316	2148.076880126253	657.5468163778113	870.9006767049869	2225.760882084308	999.773895966626	1135.996892468972	8903712674.173563	-8166133.136270084	-2983143.450029031	2130.196144601869	32.63743057839721	989.582716272796	2148.495892512866	44.6331440367854	1029.848906643452	2145.305781134915	81.36233293339667	994.4950609252122	2153.060953377293	1061.226318969349	1157.326606181512	2360.197168531771	42.8639299273531	971.8393406437428	2316.323934426552	38.13936987639468	1080.186825620268	2057.687621508168	1014.059059516478	1043.105141279491	2230.136656885772	174.6704056858748	1093.592787802022	2187.719319679659	192.3916984171011	1062.373988599001	2238.170282605147	250.1288043707397	1123.354060877167	2197.246205241391	266.8291042661648	1091.26671431733	2255.265133410373	596.1879017717481	1183.063672711708	2203.929867394125	579.4620156566502	1135.066494019993	2206.207188350212	694.2057979904882	1200.227846962702	2157.089296055952	677.2125258786533	1156.617536424045	
1128	7.513333333333334	2251.379089498364	958.9550745942626	912.6491777584781	1853.809177303899	711.6637416780401	995.075698469013	1845.224384143565	681.667189488101	946.0295572582556	1890.859088227237	677.4319365484145	990.6288728805249	2199.496603472168	1038.381793772662	851.2224602451787	1747.653316997021	513.6902801382257	1031.241218246191	1759.525403155645	540.1696333658159	921.4144037149869	2072.261991922513	996.9343655106339	934.9312769705188	1965.519592709694	602.0086634552456	921.540638973777	1979.191823588958	628.9039409032605	962.9903413505589	2042.999904709069	583.4019869190549	904.4591816453758	2060.693595195555	608.4023288768828	948.1449194094977	2242.051246913793	555.9199797630594	849.972730907269	2184.659258044326	549.5334767998486	893.9190672379107	2217.993968349479	660.6649848137084	832.1235785427755	2158.644781391578	652.5833197702037	867.8087615869428	2221.915511608797	996.161387733557	1138.559247658161	8943641294.282547	-8202077.341496334	-2996548.062022584	2099.857821162691	32.84365671597787	988.3839871003163	2118.184646840991	45.8901569286951	1028.502097911756	2115.045100608355	81.81057226131313	992.1929451889638	2149.06387698731	1056.301508571241	1158.42833205735	2329.848030119389	42.71950132775478	970.8361462643444	2285.727377605752	39.32866482539435	1079.267900863217	2054.656289033986	1012.041429641848	1042.252792212785	2205.953586054086	174.2904452352139	1092.190823368524	2163.646558790516	193.8297209602941	1061.67199128381	2217.670324018809	249.3789277766688	1122.430734285864	2176.771165868707	267.804674841255	1090.91818974108	2246.389213274451	592.5522756836608	1183.694330488226	2194.947450607317	576.7495682194232	1135.407783909088	2198.72879739889	691.2657020550311	1201.020523649584	2149.382707928276	675.0822291706634	1157.2557048087	
1129	7.52	2248.974955885529	954.3063164643997	914.1864916506133	1867.66998347657	704.4887417404166	991.0835608492953	1860.829797720879	673.8637472890262	942.6234125160867	1905.906191648257	671.6465197157653	987.5249133176876	2195.503468581491	1033.403249042393	851.0734520728729	1768.544380201677	503.2864414917338	1027.801239128639	1780.897032355721	529.3402343874803	917.8205704294649	2069.63620558795	995.0339558556313	934.8936156364086	1984.098426732222	597.0138201307211	918.266031216516	1997.228206786069	624.9051286338954	959.1090730971046	2061.828304110206	580.1235963230936	900.8346903282104	2079.018306088585	606.3297745684039	943.9432726490573	2258.864368697069	558.4010170531748	847.1346007932086	2201.502441672146	547.9174373881993	890.0868183493342	2228.959027259615	661.6576961310832	830.4490147078601	2169.572345727574	649.4694859222431	864.9843710326628	2218.239350468599	993.4602640920351	1140.852345833264	8983689109.324137	-8238126.800611892	-3009992.740692389	2069.456732893554	33.4363055088844	987.7455527265271	2087.791861541772	47.13065349859766	1027.787204792379	2084.668736234851	82.53725912757206	990.9223982503859	2145.179653103507	1052.679844151946	1159.310283670171	2299.302622102933	43.14710440708339	970.4678128690318	2255.049733712403	40.282478758675	1078.82083817752	2051.815037495373	1010.861366832962	1041.615041934849	2180.786488380309	174.2443917259232	1091.457519673408	2138.90594240865	195.4863823464972	1061.373002130561	2195.930440249966	248.8670998816893	1121.919188714668	2155.386133890373	268.902910675139	1090.732984155107	2236.71485006755	589.2592797266315	1184.24440407435	2184.992624196557	574.5028473117084	1135.84342166816	2190.870840918424	688.8380712328791	1201.664708630284	2141.149459411735	673.6083339812812	1157.868442158875	
